PathFileType	4	(X/Y/Z)	3_2_92_p1_0-566_filt_butterworth.trc
DataRate	CameraRate	NumFrames	NumMarkers	Units	OrigDataRate	OrigDataStartFrame	OrigNumFrames
57.0	57.0	4	27	m	57.0	0	566
Frame#	Time	RHip			RKnee			RAnkle			RBigToe			RSmallToe			RHeel			LHip			LKnee			LAnkle			LBigToe			LSmallToe			LHeel			Neck			Head			Nose			RShoulder			RElbow			RWrist			RThumb			RIndex			RPinky			LShoulder			LElbow			LWrist			LThumb			LIndex			LPinky			
		X1	Y1	Z1	X2	Y2	Z2	X3	Y3	Z3	X4	Y4	Z4	X5	Y5	Z5	X6	Y6	Z6	X7	Y7	Z7	X8	Y8	Z8	X9	Y9	Z9	X10	Y10	Z10	X11	Y11	Z11	X12	Y12	Z12	X13	Y13	Z13	X14	Y14	Z14	X15	Y15	Z15	X16	Y16	Z16	X17	Y17	Z17	X18	Y18	Z18	X19	Y19	Z19	X20	Y20	Z20	X21	Y21	Z21	X22	Y22	Z22	X23	Y23	Z23	X24	Y24	Z24	X25	Y25	Z25	X26	Y26	Z26	X27	Y27	Z27	
0	0.0	0.20919816537728222	0.8811681954177603	0.43052750312062205	0.19872327711681823	0.5105776432321387	0.4786092435485606	0.15522824323505285	0.0877691479328736	0.5253152633204565	0.17746668059546847	0.05948420084541118	0.28194722639806313	0.23668435423266115	0.019396077120435624	0.37489774295100164	0.14405779425185902	0.0539987261786316	0.5286568665972774	-0.008623899045346335	0.8974937780451491	0.37394319197922943	-0.010826898737284544	0.5355163794814698	0.4113802733250006	-0.009913144548308094	0.11975343306513127	0.4536884028661147	0.0027322170103122522	0.038757163695593316	0.29249738217410504	-0.05391508222621127	0.06491659481642428	0.3150253067427036	-0.0006117300463894001	0.0493355235577486	0.509725294753779	0.10354056211600195	1.5017584769243117	0.40474081807324835	0.14356331196997626	1.761399381083689	0.3156117628107319	0.1381699423514834	1.6115621466407317	0.2908908693168586	0.27340362540482277	1.4037239459367157	0.4325845010512669	0.29348021854008116	1.1470550323425892	0.3238758575789815	0.11348922785993901	1.0607370576223876	0.19168962280799043	0.0004787810670101243	1.0637765767560454	0.18488449515014027	-0.002820724045996132	1.0386118150026458	0.18610077714685683	0.01239269002001064	0.9832597276278339	0.1878299081452552	-0.05499682599492743	1.4185446998682623	0.37188619404858464	-0.035838013506392256	1.1272132913267576	0.2712358891640343	0.0324182882918383	0.9172503674082854	0.17825228317686503	0.11312782107263235	0.8353258004510584	0.18333408768658888	0.11079981993667512	0.8164170014803281	0.16935094510511658	0.06613169803961925	0.8344424079562996	0.12029410718513489	
1	0.0175438596491228	0.20915766582559264	0.8811768489582905	0.4304894381024253	0.19619817912419305	0.5089827364992259	0.48358984357167584	0.15527048502513702	0.08673567057335548	0.5238138509748321	0.17756169882735046	0.05937928114160715	0.2820365759810804	0.23677028949465195	0.01947058780370872	0.37578551783456576	0.14467661527264203	0.051363685123241354	0.530071732328892	-0.008828336877379323	0.8968292489996548	0.374457387713341	-0.01055516092521518	0.5344371020686057	0.41136325806252855	-0.008551694235240274	0.11853891534503158	0.45213682120079907	0.004343474066874899	0.04234033024222145	0.2852640625728987	-0.05062431697917247	0.0701711961528214	0.3080545353941247	-0.0007668525799282954	0.0445173715015939	0.5113391556743809	0.10350719497891975	1.5017507664259022	0.4048360358187102	0.14067477322776983	1.7599360888552942	0.30980201348015274	0.13772287533218405	1.610864621194181	0.28085245216401855	0.27282763354160305	1.404595035745677	0.432413774901381	0.291872614027637	1.149808261102586	0.3181968686565536	0.1131548527429164	1.0608170938757278	0.18919114024302583	0.002536857903511141	1.0637965818009936	0.18039275351459347	-0.0027642823315947485	1.0385593126226762	0.18613156436490416	0.013230082762339647	0.9841799240770003	0.1859842465686747	-0.05373895519347776	1.4215422109562597	0.36963346222136084	-0.03843996131011488	1.127534393271451	0.2700963787055981	0.03233224418200178	0.9185198669123622	0.17847615194146538	0.11232925747488878	0.8369661911445679	0.18047016770730126	0.11100437526045727	0.8158543009461496	0.1713206682639522	0.06494268833870806	0.8343802855966271	0.12034807111440206	
2	0.0350877192982456	0.20911979916303525	0.8812511879970752	0.4304316302376282	0.19413502002446734	0.5077038801405965	0.48783786702532367	0.15530998337489338	0.08579132176297947	0.5226082223635441	0.17762310958538052	0.05930717443286981	0.28204697980338966	0.23681066528299136	0.019934416292404833	0.3764034314223843	0.14513191182630386	0.0492415162962162	0.5309734487979201	-0.00906165006074938	0.8962744788121693	0.37476632777503355	-0.01034911462694037	0.5335738059266202	0.41132795602906136	-0.007495369110297377	0.11744503555011024	0.45104261144555535	0.005820705827227837	0.04428255660608186	0.28074846481286897	-0.04870553538057522	0.07281593456871234	0.3036343601706942	-0.0008917890871814032	0.040613964914121184	0.5127037542845042	0.10349347148723641	1.501741392119269	0.4048913705682382	0.13883670055969488	1.7591738680709246	0.30609734137784705	0.13732898581241137	1.6104002285934702	0.27395987460551324	0.27263261500635333	1.404874310296656	0.4323698182157766	0.29087463942574265	1.1521803915873507	0.3146579131239076	0.11310263041310087	1.0603241962157663	0.18828794749936134	0.004023054874346842	1.0638350387540685	0.17717054275618718	-0.0027112100665224103	1.0385520472643623	0.1861560213678458	0.013582756102086814	0.9842380461686993	0.185184754209089	-0.05254187082466247	1.423613331647945	0.36845762873725585	-0.039925931219694545	1.1276660835082903	0.26962418227663376	0.03225359879718094	0.9194746569178802	0.17867261783832208	0.1116578903670415	0.8379932693657859	0.17797501972206614	0.11100643439827251	0.8149437535088133	0.17186166532304614	0.06446228335825253	0.8345216692191091	0.12035184784321305	
3	0.0526315789473684	0.20908491562668757	0.8813861307328941	0.43035702790514185	0.19249719190403283	0.5067140431844788	0.4913993700795528	0.15534692056847088	0.08493240414733401	0.52167555870869	0.1776570802703969	0.05926516068432273	0.2819955002692972	0.2368178631025611	0.020627855510383035	0.376778249275425	0.14543704163399307	0.04759112165702152	0.5314108124333211	-0.00931499496905282	0.8958183788329945	0.374897489875053	-0.01020169715587427	0.5329064902371459	0.4112776163272556	-0.006713720224326423	0.11646801616508863	0.4503528122618257	0.0070864971749468745	0.04493343299465878	0.2784129753249179	-0.047873209818435146	0.07344452692890291	0.3012723917387162	-0.0009902005840607695	0.03755157477171174	0.5138326026947987	0.10349457531251346	1.501731697812772	0.40491272491753477	0.13784681304176286	1.7590017507884401	0.3040918252839397	0.13699070151287784	1.610127695246062	0.2696612569160681	0.2727232589496629	1.404728898615398	0.4324181724389599	0.29036681074227977	1.1541834294198414	0.3128408809878945	0.1132405249240736	1.0594612941495922	0.18851760223936348	0.004991870682034258	1.0638766661579133	0.17509758326254973	-0.0026635006937783395	1.038575368615	0.18617959233454523	0.013563110292812928	0.9836849115472981	0.18519401914299416	-0.05142664982660496	1.4248579629751754	0.3681473763070536	-0.040493756221070314	1.1276211069697764	0.26967629465517357	0.032184616665425075	0.9201474754648106	0.17883796860163295	0.11110689621312056	0.8385182858198823	0.17584361183913005	0.11083793898312347	0.8139038626668458	0.1712314085442131	0.06450969181905417	0.8348071699332621	0.12030918030321319	
